<svg width="157" height="40" viewBox="0 0 157 40" fill="none" xmlns="http://www.w3.org/2000/svg">
<path d="M14.313 21.375C14.8432 21.375 15.3493 21.1446 15.7096 20.7393L16.3316 20.0395C16.7897 19.5242 17.0442 18.8477 17.0442 18.1454V16.4014C17.0442 15.5677 16.5077 14.8375 15.7353 14.6199L12.6033 13.7374C12.2891 13.6488 12.0708 13.3517 12.0708 13.0125V11.6834L11.8179 11.704C13.0584 10.7692 13.9049 8.9058 13.9049 6.75814C13.9049 4.71853 13.1629 2.75181 12.0385 1.66134C10.6453 0.0576694 6.79647 0.84392 6.10644 2.45853C3.76687 2.61478 2.89771 4.64595 4.39722 6.74595C4.44723 9.57517 6.74241 9.804 6.74241 9.804C6.74241 9.804 6.76738 9.81415 6.81207 9.83189L6.76371 9.86103C7.20563 10.807 7.844 11.5485 8.59507 11.9665L8.24694 11.9949V13.3181C8.24694 13.4927 8.14992 13.6517 7.99816 13.7258L3.03807 16.1467C2.13105 16.5894 1.55176 17.5388 1.55176 18.5824V21.8251C1.55176 22.3709 1.97637 22.8132 2.50009 22.8132H3.65477V20.9383L3.74302 20.9435L5.0979 26.2767C5.0979 26.2767 3.39842 30.5474 3.39842 32.6306C3.39842 34.7138 6.09759 39.2188 6.09759 39.2188H14.6948C14.6948 39.2188 17.1116 33.0398 16.1443 29.662C15.7316 28.2207 13.824 25.5996 13.824 25.5996L14.195 21.375H14.313Z" fill="white"/>
<path d="M14.313 21.375C14.8432 21.375 15.3493 21.1446 15.7095 20.7393L16.3316 20.0394C16.7896 19.5241 17.0441 18.8477 17.0441 18.1454V16.4014C17.0441 15.5676 16.5076 14.8375 15.7353 14.6198L12.6032 13.7373C12.289 13.6488 12.0707 13.3517 12.0707 13.0125V11.798C10.8613 12.1423 9.5794 12.2806 8.36083 11.9854L8.24694 11.9947V13.3179C8.24694 13.4926 8.14992 13.6515 7.99816 13.7256L3.03807 16.1465C2.13105 16.5892 1.55176 17.5386 1.55176 18.5822V21.8249C1.55176 22.3707 1.97636 22.813 2.50009 22.813H3.65477V20.9381L3.74302 20.9433L5.09789 26.2765C5.09789 26.2765 3.39842 30.5472 3.39842 32.6304C3.39842 34.7136 6.09759 39.2187 6.09759 39.2187H14.6948C14.6948 39.2187 17.1116 33.0396 16.1443 29.6618C15.7316 28.2205 13.824 25.5994 13.824 25.5994L14.195 21.3748H14.313V21.375Z" fill="white"/>
<path d="M7.10171 37.881C7.8524 37.6267 8.42456 37.1873 9.00933 36.6463C9.56102 36.1357 10.0824 35.5911 10.6315 35.0779C11.1063 34.6342 11.5477 34.1604 11.922 33.6206C12.6135 32.6231 13.0429 31.4752 13.3864 30.306C13.7395 29.1037 14.1965 27.9459 14.6259 26.7742C14.5135 26.6014 14.4057 26.4393 14.3084 26.2954C14 26.5517 13.6779 26.7919 13.3686 27.0434C11.6637 28.4292 10.408 30.3242 8.67709 31.6877C7.14077 32.8978 5.39953 33.4281 3.54492 33.64C3.92484 35.1645 4.95528 37.1735 5.58465 38.3179C6.08904 38.167 6.60235 38.0503 7.10171 37.881Z" fill="white"/>
<path d="M7.17561 22.8393H6.29715C5.88304 22.8393 5.54736 22.4895 5.54736 22.058C5.54736 21.6266 5.88304 21.2768 6.29715 21.2768H7.17561C7.74208 21.2768 8.25898 20.9777 8.55845 20.4767L8.80978 20.0564C9.02872 19.6901 9.49111 19.5781 9.84254 19.8063C10.194 20.0345 10.3015 20.5163 10.0825 20.8824L9.83122 21.3027C9.25613 22.2649 8.26341 22.8393 7.17561 22.8393Z" fill="#0C0032"/>
<path d="M8.89991 32.0693C8.64123 32.0693 8.38938 31.9304 8.25037 31.681C8.04245 31.3079 8.16249 30.8307 8.52059 30.6142L8.52396 30.6122C8.88206 30.3956 9.34094 30.5224 9.54878 30.8954C9.75669 31.2686 9.63493 31.7467 9.2769 31.9632C9.15829 32.035 9.02827 32.0693 8.89991 32.0693Z" fill="#0C0032"/>
<path d="M19.2422 39.9999H19.2278C18.8137 39.9999 18.478 39.6501 18.478 39.2187C18.478 38.7872 18.8137 38.4374 19.2278 38.4374H19.2422C19.6563 38.4374 19.992 38.7872 19.992 39.2187C19.9919 39.6501 19.6562 39.9999 19.2422 39.9999Z" fill="#0C0032"/>
<path d="M16.2596 21.2702L16.8816 20.5703C17.4699 19.9085 17.7938 19.0474 17.7938 18.1454V16.4015C17.7938 15.2176 17.0277 14.1749 15.9309 13.8658L12.8203 12.9894V11.8386C13.014 11.6368 13.1977 11.4132 13.3692 11.1675C14.1981 9.98002 14.6545 8.41408 14.6545 6.75822C14.6545 4.534 13.8569 2.374 12.5715 1.1115C11.7565 0.197127 10.3001 -0.186155 8.66605 0.0857985C7.58515 0.265642 6.29821 0.786345 5.65197 1.724C4.4763 1.90799 3.5785 2.53697 3.15591 3.48799C2.68984 4.53689 2.87377 5.80931 3.657 7.00978C3.79346 9.26166 5.21402 10.2202 6.23636 10.4993C6.58253 11.1563 7.01126 11.7056 7.4969 12.1298V13.1076L2.71976 15.4393C1.55458 16.008 0.801718 17.2417 0.801718 18.5823V21.825C0.801718 22.8006 1.56358 23.5944 2.49985 23.5944H3.64065L4.30887 26.2245C3.9381 27.1914 2.64845 30.6941 2.64845 32.6305C2.64845 34.2361 3.94289 36.8857 4.78386 38.4375H1.03153C0.61742 38.4375 0.281738 38.7873 0.281738 39.2188C0.281738 39.6502 0.61742 40 1.03153 40H17.0438C17.458 40 17.7936 39.6502 17.7936 39.2188C17.7936 38.7873 17.458 38.4375 17.0438 38.4375H15.7732C16.4376 36.4521 17.6492 32.1852 16.8625 29.4385C16.4861 28.1238 15.1093 26.0989 14.5965 25.3726L14.8847 22.09C15.4081 21.9692 15.8906 21.6852 16.2596 21.2702ZM13.117 5.99674C13.142 6.24877 13.155 6.50345 13.155 6.75838C13.155 8.08658 12.8004 9.32619 12.1565 10.2487C11.5649 11.0963 10.8012 11.563 10.006 11.563C9.13287 11.563 8.29738 10.9925 7.7007 10.012C8.31485 9.42017 8.93275 8.48939 8.87869 7.3915C9.95869 7.11947 10.7651 6.19213 11.1638 4.74595C11.9361 5.03119 12.7032 5.62416 13.117 5.99674ZM7.26469 7.00806C7.65054 7.88299 6.94581 8.64189 6.56206 8.9715C6.10214 8.8315 5.17525 8.34908 5.14668 6.73166C5.14383 6.56861 5.09202 6.41056 4.9986 6.2797C4.43813 5.49486 4.26253 4.71658 4.51678 4.14431C4.74862 3.62244 5.34545 3.2922 6.15418 3.23814C6.43235 3.21955 6.67776 3.04166 6.7912 2.77635C6.97332 2.35017 7.75701 1.81924 8.90261 1.62853C9.16519 1.58486 9.42214 1.56361 9.66762 1.56361C10.462 1.56361 11.135 1.78572 11.4825 2.18564C11.4968 2.20213 11.5119 2.21806 11.5276 2.23322C11.9094 2.60353 12.2391 3.09572 12.4998 3.66353C11.9436 3.35377 11.3091 3.09759 10.6651 3.0347C10.2717 2.99697 9.91768 3.28205 9.85485 3.68814C9.68839 4.76361 9.23402 6.02033 8.01486 5.90377C7.74793 5.87775 7.48866 6.00259 7.33397 6.23025C7.17937 6.45799 7.1529 6.75463 7.26469 7.00806ZM14.698 28.3379C15.0265 28.9099 15.3071 29.4706 15.4259 29.8852C16.1577 32.4409 14.7029 36.9549 14.1787 38.4377H8.00226C11.9957 36.3376 13.6178 33.271 14.2662 30.9168C14.5219 29.988 14.647 29.1092 14.698 28.3379ZM14.313 20.5938H11.1581C10.744 20.5938 10.4083 20.9435 10.4083 21.375C10.4083 21.8065 10.744 22.1563 11.1581 22.1563H13.3735L13.0831 25.4619C13.0028 25.7463 12.3986 27.632 10.1132 29.4994C9.78729 29.7656 9.73023 30.2567 9.98576 30.5962C10.2413 30.9358 10.7127 30.9951 11.0384 30.7289C11.9746 29.964 12.6693 29.1913 13.1823 28.4906C13.1284 29.0989 13.0204 29.7759 12.8248 30.4859C11.9258 33.7499 9.65413 36.1504 6.0702 37.6298C5.50021 36.5707 4.81273 35.1693 4.43378 34.0166C5.48686 33.714 6.48086 33.3551 7.39501 32.9442C7.77523 32.7733 7.95053 32.3136 7.78647 31.9175C7.62242 31.5213 7.18117 31.3388 6.8011 31.5096C5.98345 31.8771 5.0948 32.201 4.15164 32.4771C4.22182 30.8449 5.348 27.6886 5.79045 26.576C5.85336 26.4178 5.86468 26.2424 5.82262 26.0769L4.46775 20.7437C4.3789 20.3938 4.07583 20.1635 3.7442 20.1631C3.71968 20.1631 3.69509 20.1644 3.67034 20.1669C3.66712 20.1672 3.66382 20.1676 3.6606 20.168C3.64283 20.17 3.62506 20.1726 3.60721 20.176C3.24146 20.2409 2.90496 20.5546 2.90496 20.9385V22.0321H2.5C2.39045 22.0321 2.30138 21.9393 2.30138 21.8252V18.5824C2.30138 17.8453 2.71534 17.167 3.35596 16.8543L8.31613 14.4333C8.72949 14.2315 8.99664 13.7938 8.99664 13.3182V12.9762C9.32377 13.0741 9.66178 13.1254 10.006 13.1254C10.4592 13.1254 10.9004 13.0375 11.3208 12.8708V13.0128C11.3208 13.7032 11.7676 14.3114 12.4074 14.4917L15.5394 15.3742C15.9839 15.4995 16.2942 15.922 16.2942 16.4016V18.1455C16.2942 18.6526 16.1121 19.1367 15.7814 19.5087L15.1594 20.2085C14.9418 20.4533 14.6333 20.5938 14.313 20.5938Z" fill="#0C0032"/>
<path d="M30.0993 14.84H34.3713L38.8833 26.552L43.2993 14.84H47.5233V32H44.3313V19.04L39.2193 32H38.1873L32.9793 19.04V32H30.0993V14.84ZM59.4167 29.672C61.0327 29.672 62.3127 29.112 63.2567 27.992C64.2167 26.856 64.6967 25.352 64.6967 23.48V23.288C64.6967 21.48 64.2167 20.008 63.2567 18.872C62.3127 17.72 61.0167 17.144 59.3687 17.144C57.7047 17.144 56.3927 17.704 55.4327 18.824C54.4887 19.944 54.0167 21.44 54.0167 23.312V23.504C54.0167 25.36 54.5207 26.856 55.5287 27.992C56.5367 29.112 57.8327 29.672 59.4167 29.672ZM59.3687 32.24C56.7767 32.24 54.6807 31.416 53.0807 29.768C51.4807 28.12 50.6807 26.04 50.6807 23.528V23.336C50.6807 20.808 51.4887 18.72 53.1047 17.072C54.7367 15.424 56.8247 14.6 59.3687 14.6C61.9127 14.6 63.9847 15.416 65.5847 17.048C67.2007 18.664 68.0087 20.736 68.0087 23.264V23.456C68.0087 25.984 67.2087 28.08 65.6087 29.744C64.0247 31.408 61.9447 32.24 59.3687 32.24ZM76.2493 29.48C78.1533 29.48 79.5773 28.968 80.5213 27.944C81.4653 26.904 81.9373 25.416 81.9373 23.48V23.288C81.9373 19.336 80.0333 17.36 76.2253 17.36H74.3773V29.48H76.2493ZM71.1853 14.84H76.3933C79.2893 14.84 81.4893 15.6 82.9933 17.12C84.5133 18.624 85.2733 20.664 85.2733 23.24V23.456C85.2733 26.048 84.5133 28.12 82.9933 29.672C81.4733 31.224 79.2573 32 76.3453 32H71.1853V14.84ZM88.4118 14.84H99.1398V17.36H91.6038V22.064H97.6518V24.464H91.6038V29.48H99.5478V32H88.4118V14.84ZM102.761 14.84H104.105V30.896H112.433V32H102.761V14.84ZM115.702 14.84H117.046V32H115.702V14.84ZM121.675 14.84H123.499L133.099 30.152V14.84H134.371V32H132.787L122.971 16.328V32H121.675V14.84ZM146.174 32.192C143.63 32.192 141.622 31.392 140.15 29.792C138.678 28.176 137.942 26.088 137.942 23.528V23.336C137.942 20.84 138.718 18.768 140.27 17.12C141.822 15.456 143.774 14.624 146.126 14.624C147.87 14.624 149.374 15.056 150.638 15.92C151.918 16.768 152.71 18.04 153.014 19.736H151.67C151.062 17.048 149.222 15.704 146.15 15.704C144.102 15.704 142.446 16.416 141.182 17.84C139.934 19.248 139.31 21.072 139.31 23.312V23.504C139.31 25.824 139.91 27.672 141.11 29.048C142.31 30.408 143.998 31.088 146.174 31.088C148.142 31.088 149.638 30.536 150.662 29.432C151.686 28.312 152.214 26.784 152.246 24.848V24.752H146.966V23.624H153.542V24.608C153.542 27.024 152.878 28.896 151.55 30.224C150.222 31.536 148.43 32.192 146.174 32.192Z" fill="#0C0032"/>
</svg>
