<svg width="130" height="33" viewBox="0 0 130 33" fill="none" xmlns="http://www.w3.org/2000/svg">
<path d="M12.3399 17.9846C12.7786 17.9846 13.1974 17.8013 13.4956 17.4789L14.0103 16.9222C14.3894 16.5124 14.6 15.9743 14.6 15.4157V14.0285C14.6 13.3653 14.156 12.7846 13.5169 12.6115L10.925 11.9095C10.665 11.8391 10.4844 11.6028 10.4844 11.333V10.2758L10.2751 10.2922C11.3017 9.54857 12.0022 8.06644 12.0022 6.35818C12.0022 4.73586 11.3882 3.17152 10.4576 2.30415C9.30474 1.02858 6.11973 1.65397 5.54872 2.93824C3.61266 3.06252 2.89341 4.67813 4.13429 6.34849C4.17568 8.59887 6.075 8.78088 6.075 8.78088C6.075 8.78088 6.09566 8.78896 6.13264 8.80307L6.09262 8.82624C6.45833 9.57871 6.9866 10.1684 7.60812 10.5009L7.32004 10.5235V11.576C7.32004 11.7149 7.23975 11.8413 7.11416 11.9003L3.00956 13.8259C2.25898 14.178 1.7796 14.9332 1.7796 15.7633V18.3425C1.7796 18.7767 2.13098 19.1285 2.56437 19.1285H3.5199V17.6372L3.59293 17.6413L4.71412 21.8834C4.71412 21.8834 3.30776 25.2803 3.30776 26.9373C3.30776 28.5943 5.54139 32.1777 5.54139 32.1777H12.6558C12.6558 32.1777 14.6558 27.2628 13.8553 24.5761C13.5138 23.4297 11.9352 21.3448 11.9352 21.3448L12.2422 17.9846H12.3399Z" fill="white"/>
<path d="M12.3399 17.9846C12.7786 17.9846 13.1974 17.8013 13.4956 17.4789L14.0103 16.9222C14.3894 16.5124 14.6 15.9743 14.6 15.4157V14.0285C14.6 13.3653 14.156 12.7846 13.5169 12.6115L10.925 11.9095C10.665 11.8391 10.4844 11.6028 10.4844 11.333V10.367C9.48356 10.6408 8.42274 10.7508 7.41435 10.516L7.3201 10.5234V11.5759C7.3201 11.7148 7.23981 11.8412 7.11422 11.9002L3.00962 13.8258C2.25904 14.1779 1.77966 14.933 1.77966 15.7631V18.3424C1.77966 18.7765 2.13104 19.1284 2.56443 19.1284H3.51996V17.6371L3.59299 17.6412L4.71418 21.8832C4.71418 21.8832 3.30782 25.2802 3.30782 26.9372C3.30782 28.5942 5.54146 32.1775 5.54146 32.1775H12.6559C12.6559 32.1775 14.6559 27.2627 13.8554 24.5759C13.5138 23.4296 11.9352 21.3447 11.9352 21.3447L12.2422 17.9844H12.3399V17.9846Z" fill="white"/>
<path d="M6.3725 31.1136C6.99371 30.9112 7.4672 30.5618 7.9511 30.1314C8.40764 29.7253 8.83912 29.2922 9.29349 28.8839C9.68637 28.531 10.0516 28.1542 10.3614 27.7248C10.9336 26.9313 11.289 26.0183 11.5732 25.0883C11.8655 24.132 12.2436 23.2111 12.599 22.2791C12.5059 22.1417 12.4168 22.0127 12.3362 21.8983C12.081 22.1022 11.8145 22.2932 11.5585 22.4932C10.1476 23.5955 9.10853 25.1028 7.67617 26.1873C6.40482 27.1499 4.9639 27.5717 3.42917 27.7402C3.74356 28.9528 4.59627 30.5508 5.1171 31.4611C5.53449 31.3411 5.95926 31.2482 6.3725 31.1136Z" fill="white"/>
<path d="M6.43375 19.1493H5.70681C5.36412 19.1493 5.08633 18.8711 5.08633 18.5278C5.08633 18.1846 5.36412 17.9064 5.70681 17.9064H6.43375C6.90252 17.9064 7.33027 17.6686 7.57808 17.27L7.78607 16.9357C7.96724 16.6443 8.34989 16.5553 8.6407 16.7368C8.93158 16.9183 9.02049 17.3015 8.83932 17.5927L8.63133 17.9271C8.15543 18.6924 7.33393 19.1493 6.43375 19.1493Z" fill="#0C0032"/>
<path d="M7.86072 26.4908C7.64666 26.4908 7.43824 26.3803 7.32321 26.182C7.15115 25.8852 7.25049 25.5057 7.54683 25.3334L7.54962 25.3318C7.84596 25.1596 8.22568 25.2604 8.39768 25.5571C8.56974 25.8539 8.46897 26.2342 8.1727 26.4065C8.07454 26.4636 7.96695 26.4908 7.86072 26.4908Z" fill="#0C0032"/>
<path d="M16.419 32.7989H16.4071C16.0644 32.7989 15.7866 32.5207 15.7866 32.1775C15.7866 31.8343 16.0644 31.5561 16.4071 31.5561H16.419C16.7617 31.5561 17.0395 31.8343 17.0395 32.1775C17.0394 32.5207 16.7616 32.7989 16.419 32.7989Z" fill="#0C0032"/>
<path d="M13.9507 17.9012L14.4655 17.3445C14.9523 16.8181 15.2204 16.1332 15.2204 15.4157V14.0286C15.2204 13.0869 14.5864 12.2575 13.6787 12.0117L11.1047 11.3146V10.3992C11.265 10.2387 11.417 10.0609 11.5589 9.86545C12.2448 8.92091 12.6225 7.67535 12.6225 6.35826C12.6225 4.5891 11.9625 2.87103 10.8988 1.86682C10.2244 1.13952 9.01918 0.834658 7.66693 1.05097C6.77246 1.19402 5.70748 1.60819 5.1727 2.35401C4.1998 2.50035 3.45685 3.00065 3.10715 3.7571C2.72147 4.5914 2.87367 5.6035 3.52181 6.55836C3.63474 8.34952 4.81028 9.11193 5.65629 9.33396C5.94276 9.8565 6.29755 10.2935 6.69943 10.6308V11.4086L2.74622 13.2633C1.78201 13.7156 1.159 14.6969 1.159 15.7632V18.3425C1.159 19.1185 1.78946 19.7499 2.56424 19.7499H3.50828L4.06125 21.8419C3.75443 22.611 2.68722 25.397 2.68722 26.9373C2.68722 28.2144 3.7584 30.3219 4.45432 31.5562H1.34917C1.00648 31.5562 0.728699 31.8344 0.728699 32.1776C0.728699 32.5208 1.00648 32.799 1.34917 32.799H14.5998C14.9424 32.799 15.2202 32.5208 15.2202 32.1776C15.2202 31.8344 14.9424 31.5562 14.5998 31.5562H13.5483C14.098 29.977 15.1007 26.583 14.4497 24.3983C14.1382 23.3526 12.9989 21.742 12.5745 21.1643L12.8131 18.5533C13.2461 18.4572 13.6454 18.2313 13.9507 17.9012ZM11.3502 5.75257C11.3709 5.95304 11.3816 6.15562 11.3816 6.35839C11.3816 7.41485 11.0882 8.40085 10.5553 9.13461C10.0658 9.80878 9.43384 10.18 8.77577 10.18C8.05323 10.18 7.36184 9.72625 6.86807 8.94632C7.3763 8.4756 7.88763 7.73525 7.84289 6.86198C8.73662 6.64561 9.40394 5.90799 9.73384 4.75769C10.373 4.98457 11.0078 5.45622 11.3502 5.75257ZM6.50727 6.55699C6.82656 7.25291 6.24338 7.85655 5.92583 8.11872C5.54523 8.00737 4.7782 7.62365 4.75456 6.33714C4.7522 6.20745 4.70933 6.08174 4.63202 5.97765C4.16822 5.35338 4.0229 4.73433 4.2333 4.27914C4.42515 3.86404 4.91905 3.60137 5.58829 3.55837C5.81848 3.54358 6.02156 3.40208 6.11544 3.19105C6.26615 2.85207 6.91467 2.42976 7.86269 2.27807C8.07998 2.24334 8.29261 2.22643 8.49575 2.22643C9.15308 2.22643 9.71008 2.4031 9.9976 2.7212C10.0095 2.73431 10.0219 2.74699 10.0349 2.75905C10.3509 3.0536 10.6237 3.44509 10.8395 3.89673C10.3792 3.65034 9.85409 3.44658 9.32117 3.39655C8.99567 3.36654 8.70268 3.59329 8.65069 3.9163C8.51294 4.77174 8.13694 5.77134 7.12805 5.67863C6.90716 5.65793 6.6926 5.75724 6.5646 5.93831C6.43666 6.11946 6.41476 6.35541 6.50727 6.55699ZM12.6585 23.5229C12.9304 23.9778 13.1626 24.4238 13.2608 24.7537C13.8664 26.7864 12.6626 30.3769 12.2288 31.5563H7.11763C10.4223 29.8859 11.7646 27.4467 12.3012 25.5742C12.5128 24.8354 12.6163 24.1364 12.6585 23.5229ZM12.3399 17.3632H9.72919C9.3865 17.3632 9.10872 17.6414 9.10872 17.9846C9.10872 18.3278 9.3865 18.606 9.72919 18.606H11.5624L11.3222 21.2353C11.2557 21.4616 10.7557 22.9615 8.86444 24.4468C8.59478 24.6585 8.54756 25.0492 8.75902 25.3192C8.97048 25.5893 9.36057 25.6365 9.6301 25.4247C10.4048 24.8163 10.9797 24.2017 11.4043 23.6444C11.3597 24.1282 11.2703 24.6667 11.1084 25.2314C10.3645 27.8276 8.48459 29.737 5.5188 30.9137C5.04711 30.0713 4.47821 28.9567 4.16462 28.0398C5.03607 27.7991 5.85863 27.5136 6.61511 27.1868C6.92975 27.0508 7.07481 26.6852 6.93905 26.3702C6.8033 26.055 6.43815 25.9098 6.12363 26.0457C5.44701 26.338 4.71163 26.5957 3.93114 26.8153C3.98921 25.517 4.92116 23.0064 5.2873 22.1214C5.33936 21.9957 5.34873 21.8561 5.31392 21.7245L4.19273 17.4824C4.1192 17.2041 3.86841 17.0209 3.59397 17.0206C3.57368 17.0206 3.55333 17.0216 3.53286 17.0236C3.53019 17.0239 3.52746 17.0242 3.52479 17.0245C3.51008 17.0261 3.49538 17.0282 3.48061 17.0309C3.17795 17.0825 2.89948 17.332 2.89948 17.6373V18.5072H2.56436C2.47371 18.5072 2.4 18.4334 2.4 18.3426V15.7633C2.4 15.177 2.74256 14.6375 3.27269 14.3888L7.37736 12.4631C7.71942 12.3026 7.94049 11.9544 7.94049 11.5761V11.3041C8.21121 11.3819 8.49091 11.4228 8.77577 11.4228C9.15079 11.4228 9.51587 11.3529 9.86383 11.2203V11.3332C9.86383 11.8824 10.2336 12.3661 10.763 12.5096L13.3548 13.2115C13.7226 13.3111 13.9794 13.6472 13.9794 14.0287V15.4158C13.9794 15.8191 13.8287 16.2042 13.5551 16.5001L13.0403 17.0567C12.8603 17.2514 12.6049 17.3632 12.3399 17.3632Z" fill="#0C0032"/>
<path d="M25.4154 10.7H28.9754L32.7354 20.46L36.4154 10.7H39.9354V25H37.2754V14.2L33.0154 25H32.1554L27.8154 14.2V25H25.4154V10.7ZM49.8465 23.06C51.1931 23.06 52.2598 22.5933 53.0465 21.66C53.8465 20.7133 54.2465 19.46 54.2465 17.9V17.74C54.2465 16.2333 53.8465 15.0067 53.0465 14.06C52.2598 13.1 51.1798 12.62 49.8065 12.62C48.4198 12.62 47.3265 13.0867 46.5265 14.02C45.7398 14.9533 45.3465 16.2 45.3465 17.76V17.92C45.3465 19.4667 45.7665 20.7133 46.6065 21.66C47.4465 22.5933 48.5265 23.06 49.8465 23.06ZM49.8065 25.2C47.6465 25.2 45.8998 24.5133 44.5665 23.14C43.2331 21.7667 42.5665 20.0333 42.5665 17.94V17.78C42.5665 15.6733 43.2398 13.9333 44.5865 12.56C45.9465 11.1867 47.6865 10.5 49.8065 10.5C51.9265 10.5 53.6531 11.18 54.9865 12.54C56.3331 13.8867 57.0065 15.6133 57.0065 17.72V17.88C57.0065 19.9867 56.3398 21.7333 55.0065 23.12C53.6865 24.5067 51.9531 25.2 49.8065 25.2ZM63.8736 22.9C65.4603 22.9 66.647 22.4733 67.4336 21.62C68.2203 20.7533 68.6136 19.5133 68.6136 17.9V17.74C68.6136 14.4467 67.027 12.8 63.8536 12.8H62.3136V22.9H63.8736ZM59.6536 10.7H63.9936C66.407 10.7 68.2403 11.3333 69.4936 12.6C70.7603 13.8533 71.3936 15.5533 71.3936 17.7V17.88C71.3936 20.04 70.7603 21.7667 69.4936 23.06C68.227 24.3533 66.3803 25 63.9536 25H59.6536V10.7ZM74.0091 10.7H82.9491V12.8H76.6691V16.72H81.7091V18.72H76.6691V22.9H83.2891V25H74.0091V10.7ZM85.9669 10.7H87.0869V24.08H94.0269V25H85.9669V10.7ZM96.7505 10.7H97.8705V25H96.7505V10.7ZM101.729 10.7H103.249L111.249 23.46V10.7H112.309V25H110.989L102.809 11.94V25H101.729V10.7ZM122.145 25.16C120.025 25.16 118.351 24.4933 117.125 23.16C115.898 21.8133 115.285 20.0733 115.285 17.94V17.78C115.285 15.7 115.931 13.9733 117.225 12.6C118.518 11.2133 120.145 10.52 122.105 10.52C123.558 10.52 124.811 10.88 125.865 11.6C126.931 12.3067 127.591 13.3667 127.845 14.78H126.725C126.218 12.54 124.685 11.42 122.125 11.42C120.418 11.42 119.038 12.0133 117.985 13.2C116.945 14.3733 116.425 15.8933 116.425 17.76V17.92C116.425 19.8533 116.925 21.3933 117.925 22.54C118.925 23.6733 120.331 24.24 122.145 24.24C123.785 24.24 125.031 23.78 125.885 22.86C126.738 21.9267 127.178 20.6533 127.205 19.04V18.96H122.805V18.02H128.285V18.84C128.285 20.8533 127.731 22.4133 126.625 23.52C125.518 24.6133 124.025 25.16 122.145 25.16Z" fill="white"/>
</svg>
