<svg width="14" height="14" viewBox="0 0 14 14" fill="none" xmlns="http://www.w3.org/2000/svg">
<path d="M7.45517 12.9125L5.60785 11.0652L9.68893 6.9841L11.5362 8.83142L7.45517 12.9125Z" fill="white"/>
<path d="M7.24701 0.454681V2.62789H9.42024L7.24701 0.454681Z" fill="white"/>
<path d="M4.67302 10.6959H2.17568V9.77388H5.59509L6.82451 8.54446H2.17568V7.62239H7.74657L9.87491 5.49406V3.54995H6.32496V0H0.623535V12.7859H3.91413L4.39674 11.1327L4.46292 10.906L4.67302 10.6959ZM2.17568 5.47091H8.32277V6.39297H2.17568V5.47091Z" fill="white"/>
<path d="M10.3409 6.33206L11.5292 5.1438L13.3765 6.99112L12.1883 8.17939L10.3409 6.33206Z" fill="white"/>
<path d="M4.87474 12.7859L4.52032 14L6.62457 13.3857L5.1346 11.8957L4.87474 12.7859Z" fill="white"/>
</svg>
